<mxfile host="app.diagrams.net" agent="Mozilla/5.0 (Windows NT 10.0; Win64; x64) AppleWebKit/537.36 (KHTML, like Gecko) Chrome/140.0.0.0 Safari/537.36" version="28.2.5">
  <diagram name="Página-1" id="YP_meINzMe71uM9i8Fj1">
    <mxGraphModel dx="1188" dy="619" grid="1" gridSize="10" guides="1" tooltips="1" connect="1" arrows="1" fold="1" page="1" pageScale="1" pageWidth="1169" pageHeight="827" math="0" shadow="0">
      <root>
        <mxCell id="0" />
        <mxCell id="1" parent="0" />
        <mxCell id="3XxW9dJSR-WJDG375tNS-3" value="Fuentes (Sources)" style="swimlane;whiteSpace=wrap;html=1;startSize=40;" vertex="1" parent="1">
          <mxGeometry x="40" y="214" width="200" height="400" as="geometry">
            <mxRectangle x="80" y="210" width="70" height="30" as="alternateBounds" />
          </mxGeometry>
        </mxCell>
        <mxCell id="3XxW9dJSR-WJDG375tNS-34" value="API Pública (Batch)" style="rounded=1;whiteSpace=wrap;html=1;" vertex="1" parent="3XxW9dJSR-WJDG375tNS-3">
          <mxGeometry x="40" y="56" width="120" height="60" as="geometry" />
        </mxCell>
        <mxCell id="3XxW9dJSR-WJDG375tNS-35" value="Productor de Kafka&lt;div&gt;(Streaming)&lt;/div&gt;" style="rounded=1;whiteSpace=wrap;html=1;" vertex="1" parent="3XxW9dJSR-WJDG375tNS-3">
          <mxGeometry x="40" y="290" width="120" height="60" as="geometry" />
        </mxCell>
        <mxCell id="3XxW9dJSR-WJDG375tNS-5" style="edgeStyle=orthogonalEdgeStyle;rounded=0;orthogonalLoop=1;jettySize=auto;html=1;exitX=0.5;exitY=1;exitDx=0;exitDy=0;" edge="1" parent="3XxW9dJSR-WJDG375tNS-3">
          <mxGeometry relative="1" as="geometry">
            <mxPoint x="80" y="126" as="sourcePoint" />
            <mxPoint x="80" y="126" as="targetPoint" />
          </mxGeometry>
        </mxCell>
        <mxCell id="3XxW9dJSR-WJDG375tNS-36" value="Archivos JSON" style="rounded=1;whiteSpace=wrap;html=1;verticalAlign=top;" vertex="1" parent="3XxW9dJSR-WJDG375tNS-3">
          <mxGeometry x="10" y="134" width="180" height="140" as="geometry" />
        </mxCell>
        <mxCell id="3XxW9dJSR-WJDG375tNS-38" value="Riohacha_&lt;div&gt;11_538415&lt;/div&gt;" style="shape=note;whiteSpace=wrap;html=1;backgroundOutline=1;darkOpacity=0.05;" vertex="1" parent="3XxW9dJSR-WJDG375tNS-3">
          <mxGeometry x="20" y="165" width="70" height="90" as="geometry" />
        </mxCell>
        <mxCell id="3XxW9dJSR-WJDG375tNS-39" value="Patagonia_&lt;div&gt;-41&lt;/div&gt;" style="shape=note;whiteSpace=wrap;html=1;backgroundOutline=1;darkOpacity=0.05;" vertex="1" parent="3XxW9dJSR-WJDG375tNS-3">
          <mxGeometry x="110" y="165" width="70" height="90" as="geometry" />
        </mxCell>
        <mxCell id="3XxW9dJSR-WJDG375tNS-11" value="Ingesta (Ingestion)" style="swimlane;whiteSpace=wrap;html=1;startSize=40;" vertex="1" parent="1">
          <mxGeometry x="260" y="299" width="200" height="230" as="geometry">
            <mxRectangle x="80" y="210" width="70" height="30" as="alternateBounds" />
          </mxGeometry>
        </mxCell>
        <mxCell id="3XxW9dJSR-WJDG375tNS-12" style="edgeStyle=orthogonalEdgeStyle;rounded=0;orthogonalLoop=1;jettySize=auto;html=1;exitX=0.5;exitY=1;exitDx=0;exitDy=0;" edge="1" parent="3XxW9dJSR-WJDG375tNS-11">
          <mxGeometry relative="1" as="geometry">
            <mxPoint x="80" y="190" as="sourcePoint" />
            <mxPoint x="80" y="190" as="targetPoint" />
          </mxGeometry>
        </mxCell>
        <mxCell id="3XxW9dJSR-WJDG375tNS-13" value="Airbyte&lt;div&gt;(Batch)&lt;/div&gt;" style="shape=process;whiteSpace=wrap;html=1;backgroundOutline=1;" vertex="1" parent="3XxW9dJSR-WJDG375tNS-11">
          <mxGeometry x="10" y="70" width="180" height="60" as="geometry" />
        </mxCell>
        <mxCell id="3XxW9dJSR-WJDG375tNS-14" value="Kafka&lt;div&gt;(Streaming)&lt;/div&gt;" style="shape=process;whiteSpace=wrap;html=1;backgroundOutline=1;" vertex="1" parent="3XxW9dJSR-WJDG375tNS-11">
          <mxGeometry x="10" y="150" width="180" height="60" as="geometry" />
        </mxCell>
        <mxCell id="3XxW9dJSR-WJDG375tNS-18" value="" style="swimlane;whiteSpace=wrap;html=1;startSize=40;dashed=1;dashPattern=8 8;rounded=1;strokeColor=light-dark(#000000,#007FFF);strokeWidth=1;perimeterSpacing=2;" vertex="1" parent="1">
          <mxGeometry x="479" y="249" width="200" height="310" as="geometry">
            <mxRectangle x="80" y="210" width="70" height="30" as="alternateBounds" />
          </mxGeometry>
        </mxCell>
        <mxCell id="3XxW9dJSR-WJDG375tNS-19" style="edgeStyle=orthogonalEdgeStyle;rounded=0;orthogonalLoop=1;jettySize=auto;html=1;exitX=0.5;exitY=1;exitDx=0;exitDy=0;" edge="1" parent="3XxW9dJSR-WJDG375tNS-18">
          <mxGeometry relative="1" as="geometry">
            <mxPoint x="80" y="190" as="sourcePoint" />
            <mxPoint x="80" y="190" as="targetPoint" />
          </mxGeometry>
        </mxCell>
        <mxCell id="3XxW9dJSR-WJDG375tNS-20" value="Bronze (Raw)&lt;div&gt;&lt;font style=&quot;font-size: 8px;&quot;&gt;(JSON, CSV, etc.)&lt;/font&gt;&lt;/div&gt;" style="shape=process;whiteSpace=wrap;html=1;backgroundOutline=1;" vertex="1" parent="3XxW9dJSR-WJDG375tNS-18">
          <mxGeometry x="10" y="70" width="180" height="60" as="geometry" />
        </mxCell>
        <mxCell id="3XxW9dJSR-WJDG375tNS-21" value="Silver (Processed)&lt;div&gt;&lt;font style=&quot;font-size: 9px;&quot;&gt;(Parquet)&lt;/font&gt;&lt;/div&gt;" style="shape=process;whiteSpace=wrap;html=1;backgroundOutline=1;" vertex="1" parent="3XxW9dJSR-WJDG375tNS-18">
          <mxGeometry x="10" y="150" width="180" height="60" as="geometry" />
        </mxCell>
        <mxCell id="3XxW9dJSR-WJDG375tNS-22" value="Gold (Curated)&lt;div&gt;&lt;font size=&quot;1&quot;&gt;(Parquet, Delta Lake)&lt;/font&gt;&lt;/div&gt;" style="shape=process;whiteSpace=wrap;html=1;backgroundOutline=1;" vertex="1" parent="3XxW9dJSR-WJDG375tNS-18">
          <mxGeometry x="10" y="230" width="180" height="60" as="geometry" />
        </mxCell>
        <mxCell id="3XxW9dJSR-WJDG375tNS-27" value="Procesamiento&lt;div&gt;(Processing)&lt;/div&gt;" style="swimlane;whiteSpace=wrap;html=1;startSize=40;" vertex="1" parent="1">
          <mxGeometry x="700" y="324" width="200" height="180" as="geometry">
            <mxRectangle x="80" y="210" width="70" height="30" as="alternateBounds" />
          </mxGeometry>
        </mxCell>
        <mxCell id="3XxW9dJSR-WJDG375tNS-28" style="edgeStyle=orthogonalEdgeStyle;rounded=0;orthogonalLoop=1;jettySize=auto;html=1;exitX=0.5;exitY=1;exitDx=0;exitDy=0;" edge="1" parent="3XxW9dJSR-WJDG375tNS-27">
          <mxGeometry relative="1" as="geometry">
            <mxPoint x="80" y="191" as="sourcePoint" />
            <mxPoint x="80" y="191" as="targetPoint" />
          </mxGeometry>
        </mxCell>
        <mxCell id="3XxW9dJSR-WJDG375tNS-47" value="Apache Spark&lt;div&gt;(sobre AWS EMR /&lt;/div&gt;&lt;div&gt;Databricks)&lt;/div&gt;" style="rounded=1;whiteSpace=wrap;html=1;" vertex="1" parent="3XxW9dJSR-WJDG375tNS-27">
          <mxGeometry x="40" y="70" width="120" height="60" as="geometry" />
        </mxCell>
        <mxCell id="3XxW9dJSR-WJDG375tNS-52" value="" style="endArrow=classic;html=1;rounded=0;exitX=-0.008;exitY=0.697;exitDx=0;exitDy=0;exitPerimeter=0;strokeColor=light-dark(#000000,#FF6666);strokeWidth=2;" edge="1" parent="3XxW9dJSR-WJDG375tNS-27">
          <mxGeometry width="50" height="50" relative="1" as="geometry">
            <mxPoint x="39.039999999999964" y="89.86000000000006" as="sourcePoint" />
            <mxPoint x="-31" y="90.04" as="targetPoint" />
          </mxGeometry>
        </mxCell>
        <mxCell id="3XxW9dJSR-WJDG375tNS-53" value="" style="endArrow=classic;html=1;rounded=0;entryX=0;entryY=0.433;entryDx=0;entryDy=0;entryPerimeter=0;strokeColor=light-dark(#000000,#FF6666);strokeWidth=2;" edge="1" parent="3XxW9dJSR-WJDG375tNS-27">
          <mxGeometry width="50" height="50" relative="1" as="geometry">
            <mxPoint x="-30" y="116.01999999999998" as="sourcePoint" />
            <mxPoint x="40" y="115.99999999999989" as="targetPoint" />
          </mxGeometry>
        </mxCell>
        <mxCell id="3XxW9dJSR-WJDG375tNS-40" value="Consumo&lt;div&gt;(Consumption)&lt;/div&gt;" style="swimlane;whiteSpace=wrap;html=1;startSize=40;" vertex="1" parent="1">
          <mxGeometry x="920" y="244" width="200" height="340" as="geometry">
            <mxRectangle x="80" y="210" width="70" height="30" as="alternateBounds" />
          </mxGeometry>
        </mxCell>
        <mxCell id="3XxW9dJSR-WJDG375tNS-41" style="edgeStyle=orthogonalEdgeStyle;rounded=0;orthogonalLoop=1;jettySize=auto;html=1;exitX=0.5;exitY=1;exitDx=0;exitDy=0;" edge="1" parent="3XxW9dJSR-WJDG375tNS-40">
          <mxGeometry relative="1" as="geometry">
            <mxPoint x="80" y="191" as="sourcePoint" />
            <mxPoint x="80" y="191" as="targetPoint" />
          </mxGeometry>
        </mxCell>
        <mxCell id="3XxW9dJSR-WJDG375tNS-42" value="Herramientas de BI" style="shape=process;whiteSpace=wrap;html=1;backgroundOutline=1;" vertex="1" parent="3XxW9dJSR-WJDG375tNS-40">
          <mxGeometry x="10" y="71" width="180" height="60" as="geometry" />
        </mxCell>
        <mxCell id="3XxW9dJSR-WJDG375tNS-43" value="Data Scientists" style="shape=process;whiteSpace=wrap;html=1;backgroundOutline=1;" vertex="1" parent="3XxW9dJSR-WJDG375tNS-40">
          <mxGeometry x="10" y="151" width="180" height="60" as="geometry" />
        </mxCell>
        <mxCell id="3XxW9dJSR-WJDG375tNS-44" value="API&#39;s de Negocio" style="shape=process;whiteSpace=wrap;html=1;backgroundOutline=1;" vertex="1" parent="3XxW9dJSR-WJDG375tNS-40">
          <mxGeometry x="10" y="231" width="180" height="60" as="geometry" />
        </mxCell>
        <mxCell id="3XxW9dJSR-WJDG375tNS-48" value="Gobernanza y Seguridad:&lt;div&gt;&lt;b&gt;AWS Lake Formation&lt;/b&gt;&lt;/div&gt;" style="rounded=1;whiteSpace=wrap;html=1;fillColor=#76608a;fontColor=#ffffff;strokeColor=#432D57;" vertex="1" parent="1">
          <mxGeometry x="460" y="138" width="240" height="40" as="geometry" />
        </mxCell>
        <mxCell id="3XxW9dJSR-WJDG375tNS-49" value="&lt;font style=&quot;color: light-dark(rgb(0, 0, 0), rgb(0, 0, 0));&quot;&gt;Orquestación:&lt;/font&gt;&lt;div&gt;&lt;b&gt;&lt;font style=&quot;color: light-dark(rgb(0, 0, 0), rgb(0, 0, 0));&quot;&gt;Apache Airflow&lt;/font&gt;&lt;/b&gt;&lt;/div&gt;" style="rounded=1;whiteSpace=wrap;html=1;fillColor=light-dark(#e3c800, #ffecb3);strokeColor=#B09500;fontColor=#000000;" vertex="1" parent="1">
          <mxGeometry x="460" y="634" width="250" height="40" as="geometry" />
        </mxCell>
        <mxCell id="3XxW9dJSR-WJDG375tNS-50" value="&lt;div style=&quot;font-weight: 700;&quot;&gt;Data Lake&lt;/div&gt;&lt;div style=&quot;font-weight: 700;&quot;&gt;en AWS S3&lt;/div&gt;&lt;div style=&quot;font-weight: 700;&quot;&gt;&lt;br&gt;&lt;/div&gt;&lt;div style=&quot;font-weight: 700;&quot;&gt;Almacenamiento&lt;/div&gt;" style="text;html=1;align=center;verticalAlign=middle;whiteSpace=wrap;rounded=0;fillColor=light-dark(#FFFFFF,#000000);" vertex="1" parent="1">
          <mxGeometry x="519" y="214" width="120" height="65" as="geometry" />
        </mxCell>
        <mxCell id="3XxW9dJSR-WJDG375tNS-51" value="" style="endArrow=classic;html=1;rounded=0;entryX=0.013;entryY=0.063;entryDx=0;entryDy=0;entryPerimeter=0;exitX=1.005;exitY=0.468;exitDx=0;exitDy=0;exitPerimeter=0;strokeColor=light-dark(#000000,#FF6666);strokeWidth=2;" edge="1" parent="1" source="3XxW9dJSR-WJDG375tNS-20" target="3XxW9dJSR-WJDG375tNS-47">
          <mxGeometry width="50" height="50" relative="1" as="geometry">
            <mxPoint x="670" y="350" as="sourcePoint" />
            <mxPoint x="740" y="394" as="targetPoint" />
          </mxGeometry>
        </mxCell>
        <mxCell id="3XxW9dJSR-WJDG375tNS-54" value="" style="endArrow=classic;html=1;rounded=0;exitX=0.015;exitY=0.954;exitDx=0;exitDy=0;exitPerimeter=0;entryX=1;entryY=0.5;entryDx=0;entryDy=0;strokeColor=light-dark(#000000,#FF6666);strokeWidth=2;" edge="1" parent="1" source="3XxW9dJSR-WJDG375tNS-47" target="3XxW9dJSR-WJDG375tNS-22">
          <mxGeometry width="50" height="50" relative="1" as="geometry">
            <mxPoint x="670" y="510" as="sourcePoint" />
            <mxPoint x="670" y="470" as="targetPoint" />
          </mxGeometry>
        </mxCell>
        <mxCell id="3XxW9dJSR-WJDG375tNS-67" value="" style="endArrow=classic;startArrow=classic;html=1;rounded=0;exitX=0.49;exitY=0.005;exitDx=0;exitDy=0;exitPerimeter=0;entryX=1.001;entryY=0.521;entryDx=0;entryDy=0;entryPerimeter=0;strokeColor=light-dark(#000000,#FF6666);strokeWidth=2;" edge="1" parent="1" source="3XxW9dJSR-WJDG375tNS-49" target="3XxW9dJSR-WJDG375tNS-13">
          <mxGeometry width="50" height="50" relative="1" as="geometry">
            <mxPoint x="480" y="430" as="sourcePoint" />
            <mxPoint x="530" y="380" as="targetPoint" />
            <Array as="points">
              <mxPoint x="583" y="580" />
              <mxPoint x="470" y="580" />
              <mxPoint x="470" y="400" />
            </Array>
          </mxGeometry>
        </mxCell>
        <mxCell id="3XxW9dJSR-WJDG375tNS-69" value="" style="shape=flexArrow;endArrow=classic;html=1;rounded=0;fillColor=light-dark(#FAD9D5,#440903);strokeColor=#ae4132;fillStyle=cross-hatch;gradientColor=light-dark(#000000,#00994D);gradientDirection=east;" edge="1" parent="1">
          <mxGeometry width="50" height="50" relative="1" as="geometry">
            <mxPoint x="128" y="100" as="sourcePoint" />
            <mxPoint x="1028" y="100" as="targetPoint" />
          </mxGeometry>
        </mxCell>
      </root>
    </mxGraphModel>
  </diagram>
</mxfile>
